@startuml

title __CUP's Class Diagram__\n

  namespace dev.aguss787.cs4212.assignment1 {
    namespace cup {
      class dev.aguss787.cs4212.assignment1.cup.Parser {
          {static} # _action_table : short[][]
          {static} # _production_table : short[][]
          {static} # _reduce_table : short[][]
          + EOF_sym()
          + Parser()
          + Parser()
          + Parser()
          + action_table()
          + do_action()
          + error_sym()
          + getSymbolContainer()
          + production_table()
          + reduce_table()
          + report_error()
          + start_production()
          + start_state()
          # init_actions()
      }
    }
  }
  

  namespace dev.aguss787.cs4212.assignment1 {
    namespace cup {
      class dev.aguss787.cs4212.assignment1.cup.Parser.CUP$Parser$actions {
          + CUP$Parser$do_action()
          + CUP$Parser$do_action_part00000000()
          ~ CUP$Parser$actions()
      }
    }
  }
  

  namespace dev.aguss787.cs4212.assignment1 {
    namespace cup {
      interface dev.aguss787.cs4212.assignment1.cup.Symbols {
          {static} + AND : int
          {static} + CLASS : int
          {static} + CNAME : int
          {static} + COMMA : int
          {static} + DIVIDE : int
          {static} + DOT : int
          {static} + ELSE : int
          {static} + EOF : int
          {static} + EQ : int
          {static} + EQEQ : int
          {static} + FALSE : int
          {static} + GT : int
          {static} + GTQ : int
          {static} + IDENTIFIER : int
          {static} + IF : int
          {static} + INTEGER_LITERAL : int
          {static} + LPAREN : int
          {static} + LSQBR : int
          {static} + LT : int
          {static} + LTQ : int
          {static} + MINUS : int
          {static} + MOD : int
          {static} + NEG : int
          {static} + NEQ : int
          {static} + NEW : int
          {static} + NULL : int
          {static} + NUMBER : int
          {static} + OR : int
          {static} + PLUS : int
          {static} + PRINTLN : int
          {static} + READLN : int
          {static} + RETURN : int
          {static} + RPAREN : int
          {static} + RSQBR : int
          {static} + SEMI : int
          {static} + STRING_LITERAL : int
          {static} + THIS : int
          {static} + TIMES : int
          {static} + TRUE : int
          {static} + TYPE_BOOL : int
          {static} + TYPE_INT : int
          {static} + TYPE_STRING : int
          {static} + TYPE_VOID : int
          {static} + UMINUS : int
          {static} + WHILE : int
          {static} + error : int
          {static} + terminalNames : String[]
      }
    }
  }
  

  dev.aguss787.cs4212.assignment1.cup.Parser -up-|> java_cup.runtime.lr_parser
  dev.aguss787.cs4212.assignment1.cup.Parser o-- dev.aguss787.cs4212.assignment1.cup.Parser.CUP$Parser$actions : action_obj
  dev.aguss787.cs4212.assignment1.cup.Parser +-down- dev.aguss787.cs4212.assignment1.cup.Parser.CUP$Parser$actions
  dev.aguss787.cs4212.assignment1.cup.Parser.CUP$Parser$actions o-- dev.aguss787.cs4212.assignment1.cup.Parser : parser


right footer


PlantUML diagram generated by SketchIt! (https://bitbucket.org/pmesmeur/sketch.it)
For more information about this tool, please contact philippe.mesmeur@gmail.com
endfooter

@enduml
